<svg class="icons" width="0" height="0" xmlns="http://www.w3.org/2000/svg">
  <defs>
    <symbol id="icon-norain" viewBox="0 0 32 32">
      <path class="path1" fill="#f2eb54" d="M20.419 7.985c-2.316-0.122-4.571 1.097-5.73 3.139l1.28 0.701c0.853-1.554 2.56-2.499 4.358-2.408 1.25 0.061 2.377 0.64 3.23 1.554 0.823 0.945 1.25 2.133 1.189 3.383-0.030 0.427-0.122 0.853-0.244 1.25l1.371 0.488c0.183-0.518 0.305-1.067 0.335-1.646 0.091-1.646-0.457-3.2-1.554-4.45-1.097-1.219-2.59-1.92-4.236-2.011z"></path>
      <path class="path2" fill="#f3eb53" d="M31.208 14.019l-2.408-0.152c-0.396-0.030-0.762 0.274-0.762 0.701-0.030 0.396 0.274 0.762 0.701 0.762l2.438 0.152c0.396 0 0.701-0.305 0.731-0.701 0-0.396-0.305-0.762-0.701-0.762zM30.324 9.752c0.366-0.183 0.518-0.61 0.335-0.975s-0.61-0.518-0.975-0.335l-2.164 1.097c-0.366 0.183-0.518 0.61-0.335 0.975 0.122 0.244 0.396 0.396 0.64 0.396 0.122 0 0.213-0.030 0.335-0.091l2.164-1.067zM26.575 4.206c-0.335-0.213-0.792-0.122-1.006 0.213l-1.341 2.011c-0.213 0.335-0.122 0.792 0.213 1.006 0.122 0.091 0.274 0.122 0.396 0.122 0.244 0 0.457-0.122 0.61-0.335l1.341-2.011c0.213-0.335 0.122-0.792-0.213-1.006zM20.541 6.126h0.030c0.396 0 0.701-0.305 0.731-0.701l0.152-2.408c0.030-0.396-0.274-0.762-0.701-0.762-0.396-0.030-0.762 0.274-0.762 0.701l-0.152 2.408c-0.030 0.396 0.274 0.762 0.701 0.762zM16.152 7.040c0.122 0 0.213-0.030 0.335-0.091 0.366-0.183 0.518-0.61 0.335-0.975l-1.097-2.164c-0.183-0.366-0.61-0.518-0.975-0.335s-0.518 0.61-0.335 0.975l1.097 2.164c0.122 0.274 0.396 0.427 0.64 0.427zM13.196 8.716l-2.011-1.341c-0.335-0.213-0.792-0.122-1.006 0.213s-0.122 0.792 0.213 1.006l2.011 1.341c0.122 0.091 0.274 0.122 0.396 0.122 0.244 0 0.457-0.122 0.61-0.335 0.213-0.335 0.122-0.792-0.213-1.006z"></path>
      <path class="path3" fill="#fff" d="M24.625 29.745h-19.444c-2.834 0-5.12-2.316-5.12-5.12 0-2.834 2.255-5.12 5.059-5.12 0.366-4.907 4.48-8.777 9.478-8.777 3.383 0 6.43 1.768 8.168 4.632 0.61-0.152 1.25-0.244 1.859-0.244 4.023 0 7.314 3.291 7.314 7.314s-3.261 7.314-7.314 7.314zM5.181 20.968c-2.011 0-3.657 1.646-3.657 3.657s1.646 3.657 3.657 3.657h19.474c3.23 0 5.851-2.621 5.851-5.851s-2.621-5.851-5.851-5.851c-0.67 0-1.31 0.122-1.981 0.335l-0.61 0.213-0.305-0.579c-1.371-2.682-4.114-4.358-7.162-4.358-4.45 0-8.046 3.596-8.046 8.046v0.853l-0.823-0.061c-0.183-0.061-0.366-0.061-0.549-0.061z"></path>
    </symbol>
    <symbol id="icon-rain" viewBox="0 0 32 32">
      <path class="path1" fill="#292667" d="M8.686 27.855l-2.255 2.255c-0.274 0.274-0.274 0.762 0 1.036 0.152 0.152 0.335 0.213 0.518 0.213s0.366-0.061 0.518-0.213l2.255-2.255c0.274-0.274 0.274-0.762 0-1.036-0.305-0.274-0.762-0.274-1.036 0zM7.314 22.705c-0.274-0.274-0.762-0.274-1.036 0l-2.255 2.255c-0.274 0.274-0.274 0.762 0 1.036 0.152 0.152 0.335 0.213 0.518 0.213s0.366-0.061 0.518-0.213l2.255-2.255c0.305-0.274 0.305-0.731 0-1.036zM17.554 27.855l-2.255 2.255c-0.274 0.274-0.274 0.762 0 1.036 0.152 0.152 0.335 0.213 0.518 0.213s0.366-0.061 0.518-0.213l2.255-2.255c0.274-0.274 0.274-0.762 0-1.036s-0.731-0.274-1.036 0zM16.213 22.705c-0.274-0.274-0.762-0.274-1.036 0l-2.255 2.255c-0.274 0.274-0.274 0.762 0 1.036 0.152 0.152 0.335 0.213 0.518 0.213s0.366-0.061 0.518-0.213l2.255-2.255c0.274-0.274 0.274-0.731 0-1.036zM25.082 22.705c-0.274-0.274-0.762-0.274-1.036 0l-2.255 2.255c-0.274 0.274-0.274 0.762 0 1.036 0.152 0.152 0.335 0.213 0.518 0.213s0.366-0.061 0.518-0.213l2.255-2.255c0.305-0.274 0.305-0.731 0-1.036z"></path>
      <path class="path2" fill="#fff" d="M24.625 19.657h-19.444c-2.834 0-5.12-2.286-5.12-5.12 0-2.804 2.286-5.090 5.090-5.12 0.366-4.937 4.48-8.777 9.448-8.777 3.383 0 6.43 1.768 8.168 4.632 0.61-0.152 1.25-0.244 1.859-0.244 4.023 0 7.314 3.291 7.314 7.314 0 4.053-3.261 7.314-7.314 7.314zM5.181 10.88c-2.011 0-3.657 1.646-3.657 3.657s1.646 3.657 3.657 3.657h19.474c3.23 0 5.851-2.621 5.851-5.851s-2.621-5.851-5.851-5.851c-0.67 0-1.31 0.122-1.981 0.335l-0.61 0.213-0.305-0.579c-1.371-2.682-4.114-4.358-7.162-4.358-4.45 0-8.046 3.596-8.046 8.046v0.853l-0.823-0.061c-0.213-0.030-0.396-0.061-0.549-0.061z"></path>
    </symbol>
  </defs>
</svg>
